<svg version="1.2" xmlns="http://www.w3.org/2000/svg" viewBox="0 0 1200 1200" width="1200" height="1200"><style>.s0{fill:#6d6e70}.s1{fill:#d91c5c}</style><rect width="1200" height="1200" style="fill:#ffffff" /><path class="s0" d="m689.1 887.8l-260.2-260.3v260.3h-54.8v-575h54.8v237.3q30.8 30.9 337.6 337.7z" /><path class="s1" d="m461.9 172c44.7-14.4 91.2-21.7 138.4-21.7c74.8 0 148.7 18.7 214.2 54.2l-118.9 119.3c-100.9 101.4-204.9 205.9-233.7 234.8z" /><path class="s0" d="m493.5 573.8l267.2-267.2h77.4l-305.9 305.9z" /><path class="s1" d="m855.4 927c-122.6-121.4-273.2-270.6-296.9-294q22.5-22.6 354.7-356.1c88.4 85.5 137.1 200.2 137.1 323.4c0 137.9-61.7 265.9-169.5 351.9z" /><path class="s1" d="m600.3 1050.3c-47.2 0-93.7-7.3-138.4-21.7v-321.3c24.4 24.2 104 102.8 187.5 185.4l124.3 123c-55 23-113.3 34.6-173.4 34.6z" /><path class="s1" d="m341 968.2c-119.5-84.5-190.7-221.4-190.7-367.9c0-146.5 71.2-283.4 190.7-367.8z" /></svg>