<svg version="1.2" xmlns="http://www.w3.org/2000/svg" viewBox="0 0 1200 1200" width="1200" height="1200"><style>.s0{fill:#6d6e70}.s1{fill:#d91c5c}</style><rect width="1200" height="1200" style="fill:#ffffff" /><path class="s0" d="m698.9 919.6l-289.2-289.2v289.2h-60.8v-638.8h60.8v263.7q34.3 34.2 375.2 375.1z" /><path class="s1" d="m446.5 124.3c49.5-16 101.3-24.1 153.7-24.1c83.2 0 165.3 20.8 238 60.2l-132 132.6c-112.2 112.7-227.7 228.7-259.7 260.8z" /><path class="s0" d="m481.5 570.8l296.9-296.9h86l-339.9 339.9z" /><path class="s1" d="m883.6 963.3c-136.2-135-303.5-300.7-329.8-326.8q25-25.1 394.1-395.6c98.3 95 152.3 222.5 152.3 359.3c0 153.2-68.6 295.5-188.3 391.1z" /><path class="s1" d="m600.2 1100.2c-52.4 0-104.2-8.1-153.7-24.1v-357c27.1 26.9 115.5 114.3 208.2 206l138.2 136.6c-61.1 25.6-125.9 38.5-192.7 38.5z" /><path class="s1" d="m312.2 1008.9c-132.9-93.8-212-245.9-212-408.7c0-162.8 79.1-314.9 212-408.7z" /></svg>